<svg version="1.1" xmlns="http://www.w3.org/2000/svg" xmlns:xlink="http://www.w3.org/1999/xlink" width="512.000000pt" height="512.000000pt" viewBox="0,0,256,256"><g fill="#ffffff" fill-rule="nonzero" stroke="none" stroke-width="1" stroke-linecap="butt" stroke-linejoin="miter" stroke-miterlimit="10" stroke-dasharray="" stroke-dashoffset="0" font-family="none" font-weight="none" font-size="none" text-anchor="none" style="mix-blend-mode: normal"><g transform="translate(-0.0297,0.00948) scale(0.5,0.5)"><g transform="translate(0,512) scale(0.1,-0.1)"><path d="M275,5102c-125,-43 -231,-157 -265,-285c-17,-62 -8,-446 15,-637c65,-550 206,-1035 444,-1525c239,-493 518,-883 910,-1276c393,-392 783,-671 1276,-910c490,-238 975,-379 1525,-444c191,-23 575,-32 637,-15c96,25 187,93 242,179c61,94 61,93 61,692c0,483 -2,551 -17,595c-32,95 -87,166 -168,219c-80,51 -133,64 -289,71c-274,10 -498,46 -746,117c-169,48 -275,55 -369,24c-69,-23 -66,-21 -419,-289l-299,-226l-124,72c-554,321 -906,673 -1225,1225l-72,124l226,300c125,165 237,314 250,331c34,46 62,148 62,226c0,48 -11,107 -41,211c-75,266 -103,441 -119,734c-9,177 -18,223 -55,295c-24,47 -102,127 -151,156c-91,53 -96,54 -689,53c-492,0 -555,-2 -600,-17z"></path></g></g></g></svg>