<svg version="1.1" xmlns="http://www.w3.org/2000/svg" xmlns:xlink="http://www.w3.org/1999/xlink" width="512.000000pt" height="512.000000pt" viewBox="0,0,256,256"><g fill="#ffffff" fill-rule="nonzero" stroke="none" stroke-width="1" stroke-linecap="butt" stroke-linejoin="miter" stroke-miterlimit="10" stroke-dasharray="" stroke-dashoffset="0" font-family="none" font-weight="none" font-size="none" text-anchor="none" style="mix-blend-mode: normal"><g transform="translate(0.0375,-0.02116) scale(0.5,0.5)"><g transform="translate(0,512) scale(0.1,-0.1)"><path d="M2910,4600c-416,-50 -707,-298 -806,-687c-33,-130 -44,-268 -44,-545v-238h-280h-281l-25,-25l-25,-25l3,-375c3,-344 4,-376 21,-392c16,-16 45,-18 302,-21l285,-3l2,-865l3,-866l28,-24l28,-24h374c258,0 382,4 399,11c14,7 30,25 36,42c7,20 10,312 10,878v848l323,3c177,2 330,7 340,12c39,19 42,42 45,356c4,361 0,423 -33,456l-24,24h-326h-326l3,273c3,267 3,273 27,311c16,25 40,46 70,59c42,19 70,21 306,25c290,4 297,6 314,69c14,51 14,616 0,666c-18,65 -33,67 -381,66c-167,-1 -332,-5 -368,-9z"></path></g></g></g></svg>