<svg version="1.1" xmlns="http://www.w3.org/2000/svg" xmlns:xlink="http://www.w3.org/1999/xlink" width="512.000000pt" height="512.000000pt" viewBox="0,0,256,256"><g fill="#ffffff" fill-rule="nonzero" stroke="none" stroke-width="1" stroke-linecap="butt" stroke-linejoin="miter" stroke-miterlimit="10" stroke-dasharray="" stroke-dashoffset="0" font-family="none" font-weight="none" font-size="none" text-anchor="none" style="mix-blend-mode: normal"><g transform="translate(-0.05434,0.00178) scale(0.5,0.5)"><g transform="translate(0,512) scale(0.1,-0.1)"><path d="M1497,5109c-428,-23 -754,-139 -991,-350c-317,-283 -456,-611 -486,-1149c-27,-487 -20,-1997 11,-2270c42,-382 172,-680 392,-902c178,-179 350,-280 602,-353c270,-78 470,-88 1690,-82c980,4 1059,7 1260,48c590,119 990,522 1104,1111c40,206 42,315 39,1493l-4,1130l-23,125c-60,327 -178,568 -374,768c-277,283 -586,402 -1117,432c-215,12 -1881,11 -2103,-1zM3690,4630c298,-29 504,-108 657,-253c114,-107 187,-226 237,-386c38,-120 55,-231 66,-436c13,-233 13,-1767 0,-1996c-23,-415 -99,-620 -298,-811c-158,-150 -340,-227 -617,-258c-248,-28 -2097,-28 -2330,0c-194,23 -354,71 -471,141c-67,39 -199,161 -248,228c-79,107 -141,269 -170,441c-27,162 -36,486 -36,1265c0,766 9,1081 35,1240c44,274 147,467 322,608c92,74 159,110 283,151c131,43 278,65 512,76c266,12 1917,4 2058,-10z"></path><path d="M3848,4227c-150,-43 -241,-192 -216,-353c11,-70 35,-118 85,-167c61,-62 105,-80 206,-85c83,-4 91,-3 152,27c69,34 112,78 148,151c30,63 31,186 1,251c-66,142 -227,217 -376,176z"></path><path d="M2396,3869c-201,-27 -400,-104 -576,-222c-94,-63 -280,-249 -343,-344c-99,-150 -174,-332 -208,-508c-21,-105 -18,-388 5,-493c115,-534 503,-923 1038,-1039c116,-25 400,-25 516,0c270,59 474,169 668,362c197,195 312,408 371,685c25,118 25,382 0,500c-114,537 -510,935 -1042,1045c-95,20 -332,28 -429,14zM2776,3380c301,-77 533,-309 615,-615c17,-62 22,-109 22,-205c0,-144 -21,-237 -78,-357c-182,-384 -622,-580 -1015,-452c-288,93 -497,318 -577,619c-24,90 -23,289 1,385c102,397 464,669 862,649c51,-2 127,-13 170,-24z"></path></g></g></g></svg>