<svg version="1.1" xmlns="http://www.w3.org/2000/svg" xmlns:xlink="http://www.w3.org/1999/xlink" width="512.000000pt" height="512.000000pt" viewBox="0,0,256,256"><g fill="#ffffff" fill-rule="nonzero" stroke="none" stroke-width="1" stroke-linecap="butt" stroke-linejoin="miter" stroke-miterlimit="10" stroke-dasharray="" stroke-dashoffset="0" font-family="none" font-weight="none" font-size="none" text-anchor="none" style="mix-blend-mode: normal"><g transform="translate(-0.03431,-0.025) scale(0.5,0.5)"><g transform="translate(0,512) scale(0.1,-0.1)"><path d="M451,5104c-199,-53 -384,-239 -436,-440c-19,-75 -20,-242 0,-317c85,-328 424,-530 749,-447c219,56 394,230 450,447c20,77 21,240 1,313c-56,211 -234,391 -441,444c-77,20 -249,20 -323,0z"></path><path d="M3676,3499c-337,-44 -632,-223 -805,-489l-36,-55l-3,233l-2,232h-510h-510v-1710v-1710h535h535v941c0,1020 2,1059 55,1228c83,260 272,391 564,391c176,0 278,-36 374,-132c70,-69 120,-169 150,-302c21,-89 21,-119 24,-1108l4,-1018h535h535l-4,1148c-3,994 -5,1161 -19,1252c-26,164 -47,257 -83,367c-151,455 -451,681 -974,733c-120,12 -267,11 -365,-1z"></path><path d="M80,1710v-1710h535h535v1710v1710h-535h-535z"></path></g></g></g></svg>