<svg version="1.1" xmlns="http://www.w3.org/2000/svg" xmlns:xlink="http://www.w3.org/1999/xlink" width="512.000000pt" height="512.000000pt" viewBox="0,0,256,256"><g fill="#ffffff" fill-rule="nonzero" stroke="none" stroke-width="1" stroke-linecap="butt" stroke-linejoin="miter" stroke-miterlimit="10" stroke-dasharray="" stroke-dashoffset="0" font-family="none" font-weight="none" font-size="none" text-anchor="none" style="mix-blend-mode: normal"><g transform="translate(0.10903,0.12816) scale(0.5,0.5)"><g transform="translate(0,512) scale(0.1,-0.1)"><path d="M2258,5104c-31,-16 -32,-21 -48,-157c-33,-283 -151,-491 -340,-600c-70,-40 -168,-67 -275,-76c-90,-8 -101,-11 -122,-35c-28,-32 -30,-76 -5,-106c19,-23 77,-39 147,-40c23,0 68,-7 100,-15c279,-71 455,-308 495,-666c13,-118 22,-142 57,-158c38,-17 62,-13 92,17c25,24 28,37 34,117c15,213 94,406 217,531c103,104 217,156 387,174c54,6 108,16 120,22c33,17 48,61 33,98c-17,41 -57,60 -128,60c-77,0 -198,32 -272,71c-123,66 -229,190 -289,340c-35,87 -71,255 -71,329c0,44 -4,56 -29,81c-32,32 -62,36 -103,13zM2412,4414c49,-67 132,-144 207,-192l61,-40l-65,-42c-98,-64 -213,-191 -267,-295l-45,-86l-31,63c-61,125 -166,242 -288,323l-55,37l43,27c126,81 229,193 295,325l35,69l37,-69c20,-39 53,-93 73,-120z"></path><path d="M4710,5111c-14,-5 -39,-15 -55,-24c-17,-9 -689,-675 -1494,-1481l-1465,-1465l-50,46c-28,25 -69,54 -91,64c-54,25 -157,25 -210,0c-72,-33 -145,-129 -145,-190c0,-18 -5,-19 -53,-14c-127,13 -337,-39 -464,-115c-149,-88 -252,-196 -329,-345c-180,-347 -100,-771 195,-1033l44,-39l-209,-5c-234,-6 -243,-8 -314,-81c-118,-122 -79,-321 80,-405c34,-18 113,-19 2410,-19c2297,0 2376,1 2410,19c96,50 144,128 145,231c0,80 -19,128 -72,181c-66,66 -77,69 -301,72l-203,3l7,37c4,20 55,291 113,602l106,565l31,15c58,29 90,59 119,112c38,69 42,170 8,233c-40,74 -113,128 -191,141c-39,6 -40,7 -45,54c-13,105 -82,202 -181,250l-63,31l-12,70c-31,187 -173,330 -360,360c-124,20 -270,-29 -363,-122l-47,-47h-73c-142,1 -266,-79 -318,-204c-21,-51 -27,-57 -79,-79c-102,-42 -185,-151 -198,-259c-5,-47 -6,-48 -45,-54c-78,-13 -151,-67 -191,-141c-16,-30 -21,-58 -22,-110c0,-60 4,-78 31,-125c28,-49 44,-64 136,-125c11,-7 46,-173 123,-585c58,-316 109,-585 112,-597l5,-23h-289h-288l-13,78c-31,201 -179,366 -373,417c-30,8 -93,15 -140,15h-87l5,128c3,70 8,130 12,133c3,3 25,11 49,18c52,15 116,70 145,125c16,31 21,59 21,111c0,81 -17,122 -85,198l-42,49l1475,1476c1233,1234 1478,1484 1489,1517c16,53 15,142 -4,186c-48,116 -190,185 -307,150zM4835,4925c18,-17 25,-35 25,-62c0,-37 -34,-72 -1462,-1500l-1463,-1463l-60,60l-60,60l1465,1465c1353,1353 1468,1465 1498,1465c22,0 41,-8 57,-25zM4129,2784c96,-48 145,-147 134,-273c-5,-65 -4,-71 20,-95c19,-19 36,-26 65,-26c80,0 171,-78 172,-147v-23h-680c-678,0 -680,0 -680,20c0,36 38,97 74,120c19,11 59,25 87,29c57,9 89,36 89,75c0,78 58,155 130,174c32,8 55,7 96,-4c80,-21 99,-18 128,17c14,17 26,34 26,38c0,17 76,85 114,102c63,29 159,25 225,-7zM1751,1843c177,-177 260,-267 265,-287c14,-58 -44,-116 -102,-102c-20,5 -109,87 -286,265c-245,244 -258,259 -258,295c0,51 35,86 87,86c35,0 49,-12 294,-257zM4730,2037c55,-28 64,-94 18,-137c-22,-20 -32,-20 -908,-20c-876,0 -886,0 -908,20c-46,43 -37,109 18,137c36,18 1744,18 1780,0zM1190,1871l55,-10l268,-268l269,-268l5,-95c3,-57 1,-118 -6,-152l-12,-58h-92c-79,0 -94,-3 -114,-22c-33,-31 -31,-87 3,-119c25,-24 26,-24 302,-29l277,-5l63,-34c98,-53 161,-144 177,-254l7,-48l-698,3c-777,4 -743,1 -890,74c-387,190 -496,706 -222,1041c147,179 397,279 608,244zM4587,1688c-3,-13 -54,-283 -113,-601l-108,-577h-526h-526l-108,578c-59,317 -110,587 -113,600l-5,22h752h752zM4911,327c46,-35 50,-88 10,-128l-29,-29h-2332h-2332l-29,29c-40,40 -36,93 10,128c23,18 4679,18 4702,0z"></path><path d="M3384,1531c-53,-23 -69,-89 -33,-135c20,-26 22,-26 144,-26c140,0 161,9 171,71c5,29 1,41 -19,65c-24,28 -27,29 -133,31c-60,2 -119,-1 -130,-6z"></path><path d="M3903,1533c-31,-6 -63,-49 -63,-85c0,-17 10,-39 25,-53c24,-24 27,-25 185,-25c89,0 170,4 180,10c10,5 24,25 30,44c15,46 -7,89 -51,105c-30,10 -258,13 -306,4z"></path><path d="M560,4937c-32,-16 -52,-59 -44,-91c3,-13 45,-63 94,-110c100,-98 122,-105 171,-57c50,50 36,91 -63,187c-88,86 -110,96 -158,71z"></path><path d="M988,4862c-78,-78 -88,-92 -88,-124c0,-47 26,-77 73,-85c36,-5 40,-3 128,84c84,82 91,92 91,128c0,48 -37,85 -84,85c-27,0 -47,-15 -120,-88z"></path><path d="M944,4556c-34,-15 -44,-32 -44,-79c0,-26 15,-46 87,-119c75,-75 92,-88 121,-88c46,0 82,38 82,86c0,31 -9,46 -72,111c-40,42 -87,82 -105,89c-38,16 -31,16 -69,0z"></path><path d="M604,4479c-87,-85 -105,-120 -83,-161c18,-34 40,-47 78,-48c30,0 46,11 123,88c74,75 88,93 88,121c0,45 -38,81 -86,81c-32,0 -46,-9 -120,-81z"></path><path d="M539,3811c-24,-24 -29,-38 -29,-78c0,-68 -34,-203 -69,-270c-67,-132 -156,-194 -312,-217c-74,-11 -97,-19 -111,-36c-25,-31 -23,-74 6,-106c20,-24 33,-29 99,-35c217,-21 360,-189 383,-453c9,-95 18,-114 58,-131c69,-29 111,9 121,110c27,279 163,452 368,471c110,10 137,29 137,98c0,49 -32,71 -115,80c-226,23 -361,188 -390,475c-6,58 -12,79 -31,98c-33,33 -78,31 -115,-6zM629,3333c34,-54 91,-117 135,-151l29,-23l-56,-50c-31,-28 -75,-79 -98,-114l-42,-63l-37,56c-35,55 -136,162 -152,162c-4,0 25,33 66,73c40,39 83,91 95,115c12,23 23,42 25,42c2,0 18,-21 35,-47z"></path><path d="M4243,3729c-49,-24 -109,-87 -129,-135c-18,-43 -18,-145 0,-189c75,-178 308,-217 431,-72c113,132 64,334 -98,402c-54,22 -153,20 -204,-6zM4399,3570c31,-16 46,-65 31,-100c-15,-37 -62,-64 -93,-54c-64,19 -87,87 -46,138c22,28 72,36 108,16z"></path><path d="M4692,3227c-43,-13 -118,-80 -141,-126c-79,-155 24,-347 198,-368c150,-18 281,100 281,253c0,72 -17,119 -62,170c-64,72 -180,102 -276,71zM4835,3045c41,-40 33,-105 -17,-131c-59,-30 -122,7 -122,73c0,72 89,109 139,58z"></path></g></g></g></svg>