<svg version="1.1" xmlns="http://www.w3.org/2000/svg" xmlns:xlink="http://www.w3.org/1999/xlink" width="512.000000pt" height="512.000000pt" viewBox="0,0,256,256"><g fill="#ffffff" fill-rule="nonzero" stroke="none" stroke-width="1" stroke-linecap="butt" stroke-linejoin="miter" stroke-miterlimit="10" stroke-dasharray="" stroke-dashoffset="0" font-family="none" font-weight="none" font-size="none" text-anchor="none" style="mix-blend-mode: normal"><g transform="translate(0,0.05782) scale(0.5,0.5)"><g transform="translate(0,512) scale(0.1,-0.1)"><path d="M2380,4954c-241,-27 -382,-56 -555,-111c-507,-163 -948,-491 -1244,-927c-208,-306 -337,-637 -398,-1018c-24,-157 -24,-517 1,-676c74,-472 259,-879 561,-1230c377,-438 897,-722 1484,-809c144,-21 493,-24 631,-5c698,98 1292,461 1679,1027c207,303 338,637 397,1017c25,157 25,518 1,675c-83,527 -317,993 -682,1358c-367,367 -825,597 -1352,680c-93,15 -448,28 -523,19zM2940,4792c234,-44 410,-102 615,-202c698,-340 1171,-1018 1256,-1798c17,-160 7,-452 -21,-612c-144,-824 -725,-1501 -1514,-1765c-607,-203 -1276,-137 -1835,179c-525,297 -922,816 -1072,1400c-61,236 -85,558 -60,797c93,884 690,1629 1534,1914c135,45 323,88 457,105c127,15 519,4 640,-18z"></path><path d="M2435,4154c-410,-45 -790,-243 -1068,-558c-190,-216 -317,-469 -378,-756c-32,-150 -33,-429 -1,-576c40,-185 111,-362 214,-535l41,-70l21,63c53,157 150,262 326,354c30,15 192,74 359,129l304,101l-64,39c-80,49 -193,163 -238,238c-134,228 -143,471 -25,712c124,255 388,402 687,382c329,-22 573,-226 648,-544c57,-240 -7,-482 -176,-661c-42,-45 -106,-100 -143,-123l-67,-42l320,-107c176,-59 343,-119 372,-133c127,-65 248,-206 293,-343l23,-67l24,39c51,83 135,259 164,345c136,405 108,835 -77,1214c-29,61 -68,133 -86,160l-33,50l-5,-117c-6,-132 -16,-155 -86,-195c-88,-51 -190,-15 -235,82c-15,32 -19,65 -19,168v127h-139c-127,0 -141,2 -172,23c-18,12 -44,38 -57,57c-32,46 -28,139 7,188c37,52 74,66 191,72l105,5l-85,52c-239,145 -496,221 -765,228c-77,2 -158,1 -180,-1z"></path><path d="M3670,4140c-12,-7 -16,-45 -20,-197l-5,-188l-185,-3c-160,-2 -187,-5 -197,-19c-18,-24 -16,-57 5,-76c16,-15 45,-17 200,-17h182v-183c0,-165 2,-186 18,-200c23,-21 41,-21 70,-1c21,15 22,20 22,200v184h180c167,0 181,1 200,20c25,25 26,52 2,73c-15,14 -48,17 -198,19l-179,3l-3,179c-2,150 -5,183 -19,198c-18,20 -49,23 -73,8z"></path><path d="M2431,3555c-231,-51 -403,-222 -455,-452c-74,-333 120,-651 444,-727c370,-88 726,176 747,554c23,401 -341,710 -736,625z"></path><path d="M2391,2225c-35,-8 -221,-67 -413,-131c-369,-123 -427,-150 -499,-231c-77,-88 -129,-208 -129,-298c0,-39 6,-50 56,-105c65,-70 182,-169 269,-227c639,-428 1491,-340 2028,210c86,89 89,97 62,202c-36,137 -137,264 -256,322c-87,42 -719,250 -799,262c-89,15 -242,12 -319,-4z"></path></g></g></g></svg>